<svg width="134" height="30" viewBox="0 0 134 30" fill="none" xmlns="http://www.w3.org/2000/svg">
<path d="M6.82021 0.272427C3.42477 1.05001 1.11795 2.86436 0.392208 5.37854C-0.48905 8.30743 0.107095 10.5106 2.2584 12.3508C2.9323 12.9211 5.23913 14.2689 7.41635 15.3316C11.8745 17.5347 12.9372 18.4678 12.9372 20.0748C12.9113 22.3298 10.9932 24.6107 8.42721 25.4142C6.4055 26.0622 5.05769 26.0363 4.20235 25.3883C3.55437 24.9217 3.47661 24.6885 3.47661 23.4443C3.47661 21.7596 4.28011 20.4895 5.93895 19.5564C6.50918 19.2195 6.97572 18.8307 6.97572 18.6492C6.97572 17.6643 5.03177 17.1978 3.42477 17.8198C2.54351 18.1568 1.35122 19.2454 0.858756 20.1785C0.262611 21.3189 -0.10026 23.4443 0.107095 24.7144C0.31445 26.1659 1.68818 27.7729 3.03598 28.1616C6.19814 29.017 11.5375 27.6433 14.0776 25.3105C15.6587 23.859 16.2549 22.8223 16.5918 21.0338C17.162 17.9235 15.8401 16.3683 10.0342 13.3617C4.30603 10.381 3.37293 9.44788 3.70989 7.11514C3.96908 5.43038 4.87626 4.05665 6.30182 3.14948C7.49411 2.42373 7.7533 2.3719 10.112 2.3719C12.5484 2.3719 12.678 2.39782 13.4037 3.09764C14.7515 4.39361 14.6738 5.55998 13.1704 7.29657C12.341 8.22967 12.341 8.28151 12.8076 8.61846C13.9221 9.44788 16.2289 8.77398 17.0843 7.37433C17.5249 6.67451 17.6027 6.18204 17.5508 4.7824C17.4731 3.20132 17.3694 2.94212 16.5659 2.08678C15.1662 0.6353 13.7407 0.0909919 10.8636 0.0132339C9.38622 -0.0386048 7.77922 0.0650726 6.82021 0.272427Z" fill="#082057"/>
<path d="M24.1603 4.34168C22.7607 4.75639 22.2941 5.61172 21.2573 9.62922L20.9722 10.6919L18.1989 11.5991C15.1144 12.6099 14.7775 12.9728 15.7884 14.2429C16.4363 15.0723 17.3435 15.15 18.8987 14.528C19.4948 14.2947 20.0132 14.1651 20.065 14.2169C20.1428 14.2947 19.9614 15.4352 19.6503 16.783C19.3652 18.1308 19.106 19.8414 19.0801 20.619C19.0542 21.8372 19.1319 22.0705 19.754 22.6148C20.8167 23.522 22.6829 23.4702 24.7824 22.4852L26.4153 21.7076L27.1669 22.4852C27.7631 23.0814 28.1519 23.2369 29.0072 23.2369C30.0699 23.2369 31.34 22.7444 32.1694 21.9928C32.5841 21.6558 32.6878 21.6817 33.3876 22.4334C34.3466 23.4702 35.2019 23.4702 36.3942 22.4334C37.1718 21.7336 37.3014 21.7076 37.3014 22.1223C37.3014 22.874 37.8198 23.2369 38.8566 23.2369C40.5154 23.2369 40.6968 22.9258 40.956 19.4786C41.0856 17.7938 41.2152 16.3683 41.293 16.3164C41.3448 16.2646 41.5781 17.0681 41.8114 18.1308C42.6926 22.0446 44.7662 25.129 47.384 26.399C48.991 27.1766 51.9977 27.3321 54.0194 26.736C55.8597 26.2176 57.0001 25.1808 57.0001 24.0404C57.0001 23.5997 56.9224 23.2369 56.8446 23.2369C56.7668 23.2369 56.3003 23.5479 55.8337 23.9108C53.9676 25.3363 50.7536 25.7251 48.7837 24.7661C46.7361 23.7812 45.2327 21.3448 44.2996 17.4828L43.7813 15.3315L44.4811 14.7353C49.6649 10.329 50.2092 9.52554 48.5245 8.74796C47.9024 8.46285 47.7469 8.54061 46.0103 10.355C44.2219 12.2212 42.3038 13.8282 42.1224 13.6208C42.0706 13.569 42.4853 12.0656 43.0296 10.2772C44.5329 5.32661 44.3515 4.05656 42.1224 4.05656H41.0338L39.4268 10.7178C38.5715 14.3984 37.768 17.8457 37.6643 18.39C37.5088 19.3749 36.1091 21.1633 35.5389 21.1633C34.8391 21.1633 34.8391 19.3231 35.513 15.5388C35.9018 13.4134 35.6685 12.8691 34.4503 12.8691C34.0615 12.8691 33.5949 12.6877 33.4135 12.4804C32.6619 11.5732 30.3032 12.4026 28.5666 14.191C27.3743 15.4352 26.5708 17.0681 26.2857 18.7788C26.1302 19.7896 25.9747 19.9451 24.8342 20.5153C22.1904 21.8632 21.9572 21.2152 23.2013 16.0572L23.927 13.1283L24.9897 12.8432C25.5599 12.6877 26.4412 12.4544 26.9596 12.3248C28.0482 12.0397 29.4479 10.329 29.1627 9.6033C29.0331 9.24043 28.748 9.18859 27.5298 9.34411C26.7004 9.44779 25.7673 9.57738 25.4044 9.68106C24.8601 9.81066 24.8083 9.75882 24.9379 9.21451C25.0156 8.87756 25.3267 7.58159 25.5859 6.31155L26.1043 4.05656L25.534 4.08248C25.2489 4.08248 24.6269 4.21208 24.1603 4.34168ZM33.0247 15.6425C32.947 16.4719 32.7396 17.5605 32.61 18.0789C31.8843 20.956 29.0072 22.2779 29.0072 19.7378C29.0072 17.9493 31.5732 14.1651 32.8174 14.1651C33.1543 14.1651 33.1802 14.3984 33.0247 15.6425Z" fill="#082057"/>
<path d="M51.8164 12.5063C49.6392 13.4394 47.4102 16.5756 47.4102 18.701C47.4102 20.1265 48.2137 21.7335 49.2504 22.4852C50.3909 23.2887 53.0087 23.3405 54.4084 22.6148C56.2746 21.6558 56.9744 20.4635 56.1709 19.66C55.9635 19.4526 55.6266 19.5563 54.8231 20.1265C54.0714 20.6709 53.4234 20.9041 52.6459 20.956C51.3499 21.0078 50.7797 20.5672 50.7019 19.5045C50.6501 18.8047 50.7019 18.7787 51.946 18.6751C54.7194 18.4159 56.7411 16.7052 56.7411 14.5798C56.7411 13.3875 56.6115 13.1542 55.7043 12.5322C54.9268 11.9879 53.0347 11.962 51.8164 12.5063ZM54.6676 14.2169C54.6676 15.7721 53.3975 17.2754 51.7646 17.6642C50.8833 17.8975 50.8315 17.5865 51.5832 16.0831C52.1534 14.8908 53.6567 13.3875 54.2788 13.3875C54.538 13.3875 54.6676 13.6726 54.6676 14.2169Z" fill="#082057"/>
<path d="M23.0457 26.8915C23.0457 28.0579 23.1234 28.4208 23.4085 28.4208C23.6677 28.4208 23.8232 28.0579 23.8751 27.3322C23.9269 26.5287 24.0824 26.1917 24.4194 26.1399C24.7823 26.0621 24.86 26.2436 24.86 27.2285C24.86 28.2393 24.9378 28.4208 25.3784 28.4208C25.819 28.4208 25.8968 28.2393 25.8968 27.1507C25.8968 25.6474 25.6117 25.3623 24.1602 25.3882H23.0457V26.8915Z" fill="#082057"/>
<path d="M26.8558 25.7771C25.6376 27.1249 27.0891 28.9393 28.8516 28.2654C29.4737 28.0321 29.0849 27.6433 28.2036 27.6433C27.7889 27.6433 27.4519 27.5137 27.4519 27.3841C27.4519 27.2286 27.9185 27.1249 28.4887 27.1249C29.681 27.1249 29.8624 26.6843 29.0071 25.8289C28.3591 25.181 27.4001 25.155 26.8558 25.7771ZM28.4887 26.3473C28.4887 26.4769 28.2554 26.6065 27.9703 26.6065C27.6852 26.6065 27.4519 26.4769 27.4519 26.3473C27.4519 26.1918 27.6852 26.0881 27.9703 26.0881C28.2554 26.0881 28.4887 26.1918 28.4887 26.3473Z" fill="#082057"/>
<path d="M29.6811 25.8807C30.3031 27.9283 30.5105 28.2912 30.9511 28.2912C31.2621 28.2912 31.5213 27.9801 31.7287 27.4099L32.0138 26.5287L32.273 27.4099C32.4285 27.9801 32.7136 28.3171 33.0506 28.3689C33.4912 28.4208 33.6467 28.2134 33.9059 27.3322C34.0873 26.7101 34.2947 26.0103 34.3465 25.7511C34.4502 25.4401 34.3465 25.3105 33.9577 25.3105C33.5949 25.3105 33.4134 25.5437 33.2579 26.1399L33.0765 26.9952L32.7136 26.1399C32.5322 25.6992 32.2211 25.3105 32.0138 25.3105C31.8064 25.3105 31.4954 25.6992 31.3399 26.1399L31.0029 26.9952L30.7437 26.1399C30.5623 25.5956 30.329 25.3105 29.9921 25.3105C29.6033 25.3105 29.5255 25.4401 29.6811 25.8807Z" fill="#082057"/>
<path d="M34.9946 25.6734C34.554 26.2177 34.7354 26.9693 35.3575 27.073C35.6426 27.1248 36.0054 27.3063 36.135 27.4359C36.3165 27.6173 36.135 27.6691 35.5648 27.5655C34.9168 27.4359 34.7095 27.4877 34.7095 27.7728C34.7095 28.2912 35.9018 28.5504 36.6793 28.1875C37.5606 27.7987 37.3792 27.0989 36.2646 26.5546L35.3575 26.0881H36.2128C36.8089 26.0881 37.0422 25.9844 36.9904 25.7511C36.8089 25.2846 35.3575 25.2068 34.9946 25.6734Z" fill="#082057"/>
<path d="M84 1L84 28" stroke="black" stroke-opacity="0.42" stroke-linecap="round"/>
<path d="M119.5 30C127.508 30 134 23.5081 134 15.5C134 7.49187 127.508 1 119.5 1C111.492 1 105 7.49187 105 15.5C105 23.5081 111.492 30 119.5 30Z" fill="#00285E"/>
<path d="M119.5 1.5946C111.833 1.5946 105.594 7.8335 105.594 15.501C105.594 23.1685 111.832 29.4074 119.5 29.4074C127.169 29.4074 133.407 23.1694 133.407 15.501C133.407 7.83252 127.168 1.5946 119.5 1.5946ZM119.5 29.1047C111.999 29.1047 105.895 23.0021 105.895 15.5C105.895 7.99796 111.999 1.89628 119.5 1.89628C127.001 1.89628 133.105 7.99893 133.105 15.501C133.105 23.003 127.002 29.1057 119.5 29.1047Z" fill="#DCA369"/>
<path d="M119.5 28.4926C126.675 28.4926 132.492 22.6761 132.492 15.501C132.492 8.32594 126.675 2.5094 119.5 2.5094C112.325 2.5094 106.508 8.32594 106.508 15.501C106.508 22.6761 112.325 28.4926 119.5 28.4926Z" fill="white"/>
<path d="M119.5 25.2627C124.891 25.2627 129.262 20.8922 129.262 15.501C129.262 10.1097 124.891 5.73926 119.5 5.73926C114.109 5.73926 109.738 10.1097 109.738 15.501C109.738 20.8922 114.109 25.2627 119.5 25.2627Z" fill="#00285E"/>
<path d="M119.5 24.6497C124.553 24.6497 128.649 20.5537 128.649 15.501C128.649 10.4484 124.553 6.35242 119.5 6.35242C114.447 6.35242 110.351 10.4484 110.351 15.501C110.351 20.5537 114.447 24.6497 119.5 24.6497Z" fill="white"/>
<path d="M110.298 7.37896L110.598 7.08507L111.454 7.29332L111.262 6.43305L111.562 6.13916L112.801 7.40231L112.524 7.67285L111.716 6.84762L111.889 7.73611L111.882 7.74292L111.006 7.55413L111.81 8.37352L111.538 8.64114L110.299 7.37799L110.298 7.37896Z" fill="#00285E"/>
<path d="M112.756 6.48664L112.206 5.63805L112.533 5.42591L113.077 6.26671C113.234 6.50903 113.436 6.55574 113.636 6.42631C113.835 6.29688 113.878 6.09738 113.725 5.86188L113.174 5.01134L113.501 4.79919L114.044 5.63708C114.335 6.08668 114.226 6.47107 113.827 6.72993C113.428 6.98879 113.04 6.92359 112.756 6.48664Z" fill="#00285E"/>
<path d="M114.222 4.41681L114.613 4.26403L115.318 4.79148L115.479 3.92537L115.87 3.77258L116.514 5.42111L116.154 5.56221L115.734 4.48591L115.545 5.37148L115.535 5.37537L114.804 4.85765L115.221 5.92715L114.866 6.06631L114.222 4.41681Z" fill="#00285E"/>
<path d="M116.678 3.56524L117.488 3.42316C117.687 3.38813 117.854 3.41538 117.97 3.49712C118.064 3.56232 118.121 3.65283 118.142 3.77252V3.77739C118.177 3.97397 118.092 4.10242 117.979 4.1939C118.194 4.23574 118.339 4.33111 118.381 4.56467V4.56954C118.437 4.88776 118.207 5.09309 117.814 5.16219L116.985 5.30816L116.678 3.56524ZM117.529 4.14232C117.698 4.11215 117.795 4.03917 117.773 3.90974V3.90487C117.751 3.79004 117.651 3.74138 117.489 3.7696L117.11 3.83578L117.175 4.2046L117.529 4.14232ZM117.754 4.82645C117.924 4.79628 118.015 4.7194 117.993 4.58997V4.58511C117.971 4.46833 117.871 4.41091 117.674 4.44595L117.232 4.5238L117.299 4.90722L117.754 4.82645Z" fill="#00285E"/>
<path d="M119.432 3.24316L119.791 3.249L120.521 5.0435L120.114 5.03669L119.959 4.63672L119.21 4.62504L119.042 5.01917L118.645 5.01236L119.432 3.24316ZM119.825 4.29125L119.599 3.7132L119.355 4.28347L119.825 4.29125Z" fill="#00285E"/>
<path d="M121.108 3.36194L121.493 3.41838L121.235 5.17006L120.85 5.11362L121.108 3.36194Z" fill="#00285E"/>
<path d="M122.808 4.60851L122.81 4.60365C122.99 4.13361 123.491 3.88449 123.999 4.07814C124.31 4.19784 124.457 4.37301 124.554 4.58224L124.22 4.76033C124.136 4.59586 124.034 4.47519 123.869 4.41194C123.59 4.30489 123.3 4.45962 123.192 4.74378L123.19 4.74865C123.082 5.03184 123.187 5.34324 123.472 5.45126C123.66 5.52328 123.805 5.49214 123.981 5.42402L124.123 5.74613C123.883 5.86291 123.651 5.90378 123.331 5.78214C122.845 5.59627 122.627 5.08244 122.809 4.60754L122.808 4.60851Z" fill="#00285E"/>
<path d="M125.177 4.65027L125.52 4.83614L124.673 6.39124L124.332 6.20537L125.178 4.65027H125.177Z" fill="#00285E"/>
<path d="M126.24 5.71004L125.802 5.39668L126.01 5.10474L127.204 5.95722L126.996 6.24917L126.558 5.93581L125.738 7.08413L125.421 6.85739L126.241 5.70907L126.24 5.71004Z" fill="#00285E"/>
<path d="M127.334 7.53571L127.622 6.2998L127.941 6.62484L127.73 7.4238L128.538 7.23306L128.847 7.54836L127.611 7.80917L127.108 8.30353L126.836 8.02618L127.334 7.53766V7.53571Z" fill="#00285E"/>
<path d="M111.73 22.8696L112.456 23.5722L112.271 23.763L111.755 23.2628L111.558 23.4662L112.014 23.907L111.829 24.0977L111.373 23.6569L111.016 24.0257L110.806 23.8223L111.73 22.8696Z" fill="#00285E"/>
<path d="M112.221 24.2584L112.223 24.2554C112.446 23.9508 112.869 23.8778 113.2 24.1202C113.531 24.3625 113.587 24.7829 113.364 25.0875L113.362 25.0904C113.139 25.395 112.716 25.468 112.385 25.2257C112.054 24.9834 111.998 24.5629 112.221 24.2584ZM113.113 24.9123L113.115 24.9094C113.249 24.7255 113.227 24.4744 113.037 24.3352C112.848 24.1961 112.606 24.2496 112.472 24.4335L112.47 24.4364C112.336 24.6204 112.358 24.8714 112.548 25.0106C112.738 25.1498 112.979 25.0962 113.113 24.9123Z" fill="#00285E"/>
<path d="M113.673 25.287L113.675 25.2841C113.848 24.9483 114.254 24.8102 114.618 24.998C114.982 25.1858 115.103 25.5916 114.93 25.9273L114.928 25.9303C114.755 26.266 114.349 26.4042 113.985 26.2164C113.621 26.0285 113.499 25.6227 113.673 25.287ZM114.656 25.794L114.658 25.7911C114.762 25.5887 114.7 25.3434 114.491 25.2364C114.282 25.1284 114.052 25.2189 113.948 25.4213L113.946 25.4242C113.842 25.6266 113.903 25.8719 114.113 25.9789C114.322 26.0869 114.551 25.9964 114.656 25.794Z" fill="#00285E"/>
<path d="M115.713 25.7989L115.333 25.6646L115.422 25.4106L116.46 25.7766L116.37 26.0305L115.99 25.8963L115.637 26.8937L115.362 26.7964L115.713 25.7989Z" fill="#00285E"/>
<path d="M116.737 25.8534L117.34 25.9818C117.488 26.014 117.597 26.0792 117.654 26.1697C117.701 26.2417 117.715 26.3205 117.696 26.4091V26.413C117.664 26.5599 117.568 26.6241 117.464 26.6562C117.602 26.7458 117.676 26.8528 117.638 27.027V27.0309C117.587 27.2684 117.369 27.3452 117.076 27.283L116.458 27.1506L116.735 25.8524L116.737 25.8534ZM117.13 27.0329C117.257 27.0601 117.343 27.0319 117.363 26.9355V26.9316C117.383 26.8441 117.329 26.7769 117.183 26.7458L116.853 26.6747L116.792 26.9599L117.131 27.0329H117.13ZM117.166 26.4937C117.293 26.521 117.382 26.4966 117.402 26.4003V26.3964C117.421 26.3108 117.365 26.2485 117.244 26.2232L116.962 26.1629L116.904 26.4373L117.166 26.4937Z" fill="#00285E"/>
<path d="M118.589 26.1521L118.858 26.1716L119.33 27.5466L119.025 27.5242L118.926 27.2187L118.366 27.1788L118.224 27.4668L117.927 27.4454L118.591 26.1521H118.589ZM118.839 26.954L118.694 26.5122L118.487 26.9287L118.839 26.954Z" fill="#00285E"/>
<path d="M119.698 26.2066L119.989 26.1901L120.05 27.2498L120.711 27.2119L120.726 27.4766L119.774 27.5311L119.698 26.2056L119.698 26.2066Z" fill="#00285E"/>
<path d="M120.939 26.1123L121.227 26.0616L121.41 27.1078L122.062 26.9939L122.108 27.2557L121.169 27.4202L120.94 26.1132L120.939 26.1123Z" fill="#00285E"/>
<path d="M123.022 26.3284V26.3245C122.885 25.9722 123.039 25.582 123.42 25.435C123.653 25.3455 123.824 25.3688 123.982 25.4379L123.886 25.7046C123.757 25.6549 123.639 25.6394 123.515 25.6871C123.306 25.7678 123.222 25.9985 123.304 26.2116V26.2155C123.387 26.4276 123.602 26.5483 123.815 26.4666C123.957 26.4121 124.021 26.3216 124.085 26.196L124.326 26.304C124.251 26.4889 124.142 26.6291 123.903 26.7206C123.538 26.8607 123.159 26.6836 123.022 26.3284Z" fill="#00285E"/>
<path d="M124.195 25.1265L124.452 24.9873L124.956 25.9215L125.538 25.6072L125.665 25.8408L124.825 26.2943L124.194 25.1265H124.195Z" fill="#00285E"/>
<path d="M125.695 25.1576L125.253 24.5406L125.491 24.3703L125.928 24.9815C126.053 25.1576 126.207 25.1848 126.352 25.0817C126.497 24.9776 126.522 24.8267 126.4 24.6554L125.957 24.0375L126.194 23.8672L126.63 24.4764C126.865 24.8034 126.796 25.0953 126.506 25.3026C126.216 25.5099 125.923 25.4748 125.695 25.1576Z" fill="#00285E"/>
<path d="M126.496 23.6123L126.943 23.187C127.052 23.0819 127.167 23.0303 127.275 23.0323C127.361 23.0342 127.434 23.0673 127.497 23.1325L127.5 23.1354C127.603 23.2435 127.603 23.3593 127.571 23.4634C127.723 23.4001 127.853 23.3992 127.976 23.5286L127.979 23.5315C128.146 23.7076 128.087 23.9315 127.87 24.1378L127.413 24.5738L126.496 23.6123ZM127.267 23.6191C127.36 23.5305 127.39 23.4439 127.322 23.3719L127.319 23.369C127.259 23.3057 127.175 23.3174 127.087 23.4021L126.878 23.6006L127.072 23.804L127.267 23.6181V23.6191ZM127.692 23.9529C127.785 23.8643 127.811 23.7777 127.742 23.7057L127.74 23.7028C127.678 23.6386 127.592 23.6444 127.484 23.7475L127.239 23.9801L127.441 24.1913L127.692 23.9529Z" fill="#00285E"/>
<path d="M126.072 20.9419H112.928C113.206 21.2757 113.507 21.5881 113.831 21.8761H125.17C125.494 21.5881 125.795 21.2757 126.073 20.9419H126.072Z" fill="#00285E"/>
<path d="M123.903 22.8103H115.097C116.384 23.5879 117.89 24.0365 119.501 24.0365C121.112 24.0365 122.618 23.5888 123.904 22.8103H123.903Z" fill="#00285E"/>
<path d="M111.749 19.0725C111.898 19.3956 112.067 19.707 112.254 20.0067H126.746C126.933 19.707 127.102 19.3946 127.251 19.0725H111.749Z" fill="#00285E"/>
<path d="M127.425 13.7882H111.575V14.4655H127.425V13.7882Z" fill="#00285E"/>
<path d="M125.432 17.422V17.42H125.965V17.1262H127.425V14.632H111.576V17.1262H113.036V17.42H113.569V17.422C113.569 17.6711 113.749 17.8784 113.986 17.9212H111.315C111.336 17.9942 111.358 18.0662 111.382 18.1373H127.618C127.641 18.0652 127.664 17.9932 127.685 17.9212H125.015C125.252 17.8784 125.432 17.6721 125.432 17.422ZM114.167 17.9212C114.404 17.8784 114.584 17.6721 114.584 17.422V17.42H115.753V17.422C115.753 17.6711 115.933 17.8784 116.171 17.9212H114.167ZM116.352 17.9212C116.589 17.8784 116.769 17.6721 116.769 17.422V17.42H117.302V17.1262H121.699V17.42H122.232V17.422C122.232 17.6711 122.412 17.8784 122.649 17.9212H116.352ZM122.829 17.9212C123.067 17.8784 123.247 17.6721 123.247 17.422V17.42H124.415V17.422C124.415 17.6711 124.595 17.8784 124.833 17.9212H122.829Z" fill="#00285E"/>
<path d="M111.342 13.7882H111.138C111.026 14.3341 110.968 14.8986 110.966 15.4766V15.5263C110.968 16.0732 111.021 16.6074 111.121 17.1261H111.343L111.342 13.7882Z" fill="#00285E"/>
<path d="M127.863 13.7882H127.659V17.1261H127.881C127.983 16.5997 128.037 16.0566 128.037 15.5019C128.037 14.9151 127.977 14.3429 127.863 13.7882Z" fill="#00285E"/>
<path d="M117.777 15.0359H118.367C118.462 15.0359 118.538 15.1118 118.538 15.2062V15.7959C118.538 15.8903 118.462 15.9662 118.367 15.9662H117.777C117.683 15.9662 117.607 15.8903 117.607 15.7959V15.2062C117.607 15.1118 117.683 15.0359 117.777 15.0359Z" fill="#DCA369"/>
<path d="M116.353 15.0359H116.942C117.037 15.0359 117.113 15.1118 117.113 15.2062V15.7959C117.113 15.8903 117.037 15.9662 116.942 15.9662H116.353C116.258 15.9662 116.182 15.8903 116.182 15.7959V15.2062C116.182 15.1118 116.258 15.0359 116.353 15.0359Z" fill="#DCA369"/>
<path d="M113.503 15.0359H114.093C114.187 15.0359 114.263 15.1118 114.263 15.2062V15.7959C114.263 15.8903 114.187 15.9662 114.093 15.9662H113.503C113.409 15.9662 113.333 15.8903 113.333 15.7959V15.2062C113.333 15.1118 113.409 15.0359 113.503 15.0359Z" fill="#DCA369"/>
<path d="M112.079 15.0359H112.668C112.763 15.0359 112.839 15.1118 112.839 15.2062V15.7959C112.839 15.8903 112.763 15.9662 112.668 15.9662H112.079C111.984 15.9662 111.908 15.8903 111.908 15.7959V15.2062C111.908 15.1118 111.984 15.0359 112.079 15.0359Z" fill="#DCA369"/>
<path d="M126.326 15.0359H126.916C127.01 15.0359 127.086 15.1118 127.086 15.2062V15.7959C127.086 15.8903 127.01 15.9662 126.916 15.9662H126.326C126.231 15.9662 126.156 15.8903 126.156 15.7959V15.2062C126.156 15.1118 126.231 15.0359 126.326 15.0359Z" fill="#DCA369"/>
<path d="M124.901 15.0359H125.491C125.585 15.0359 125.661 15.1118 125.661 15.2062V15.7959C125.661 15.8903 125.585 15.9662 125.491 15.9662H124.901C124.807 15.9662 124.731 15.8903 124.731 15.7959V15.2062C124.731 15.1118 124.807 15.0359 124.901 15.0359Z" fill="#DCA369"/>
<path d="M123.476 15.0359H124.066C124.161 15.0359 124.236 15.1118 124.236 15.2062V15.7959C124.236 15.8903 124.161 15.9662 124.066 15.9662H123.476C123.382 15.9662 123.306 15.8903 123.306 15.7959V15.2062C123.306 15.1118 123.382 15.0359 123.476 15.0359Z" fill="#DCA369"/>
<path d="M119.202 15.0359H119.792C119.886 15.0359 119.962 15.1118 119.962 15.2062V15.7959C119.962 15.8903 119.886 15.9662 119.792 15.9662H119.202C119.108 15.9662 119.032 15.8903 119.032 15.7959V15.2062C119.032 15.1118 119.108 15.0359 119.202 15.0359Z" fill="#DCA369"/>
<path d="M114.928 15.0359H115.518C115.612 15.0359 115.688 15.1118 115.688 15.2062V15.7959C115.688 15.8903 115.612 15.9662 115.518 15.9662H114.928C114.834 15.9662 114.758 15.8903 114.758 15.7959V15.2062C114.758 15.1118 114.834 15.0359 114.928 15.0359Z" fill="#DCA369"/>
<path d="M122.052 15.0359H122.641C122.736 15.0359 122.812 15.1118 122.812 15.2062V15.7959C122.812 15.8903 122.736 15.9662 122.641 15.9662H122.052C121.957 15.9662 121.881 15.8903 121.881 15.7959V15.2062C121.881 15.1118 121.957 15.0359 122.052 15.0359Z" fill="#DCA369"/>
<path d="M120.627 15.0359H121.217C121.311 15.0359 121.387 15.1118 121.387 15.2062V15.7959C121.387 15.8903 121.311 15.9662 121.217 15.9662H120.627C120.532 15.9662 120.457 15.8903 120.457 15.7959V15.2062C120.457 15.1118 120.532 15.0359 120.627 15.0359Z" fill="#DCA369"/>
<path d="M127.616 12.8647C126.503 9.44505 123.286 6.96643 119.5 6.96643C115.713 6.96643 112.497 9.44505 111.384 12.8647H127.616Z" fill="#6CADDF"/>
<path d="M127.382 12.8647L120.243 8.03882L119.5 8.54097L125.897 12.8647H127.382Z" fill="#B2CFED"/>
<path d="M113.103 12.8647L119.5 8.54097L118.757 8.03882L111.618 12.8647H113.103Z" fill="#B2CFED"/>
<path d="M125.897 12.8647L119.5 8.54102L113.104 12.8647H125.897Z" fill="white"/>
<path d="M127.618 12.8646H121.382L120.45 8.97982L120.369 7.85291H120.136L120.056 8.97982L119.5 11.8925L118.944 8.97982L118.863 7.85291H118.631L118.55 8.97982L117.618 12.8646H111.382C111.358 12.9367 111.336 13.0087 111.315 13.0807H127.686C127.665 13.0077 127.642 12.9357 127.618 12.8646ZM120.259 9.58317L120.696 12.8646H119.883L120.259 9.58317ZM118.742 9.58317L119.117 12.8646H118.305L118.742 9.58317Z" fill="#092264"/>
</svg>
