<svg width="446" height="446" viewBox="0 0 446 446" fill="none" xmlns="http://www.w3.org/2000/svg">
<path d="M223 446C346.159 446 446 346.159 446 223C446 99.8405 346.159 0 223 0C99.8405 0 0 99.8405 0 223C0 346.159 99.8405 446 223 446Z" fill="#00285E"/>
<path d="M223 9.14453C105.079 9.14453 9.12964 105.094 9.12964 223.015C9.12964 340.936 105.065 436.885 223 436.885C340.936 436.885 436.871 340.951 436.871 223.015C436.871 105.079 340.921 9.14453 223 9.14453ZM223 432.231C107.639 432.231 13.7692 338.376 13.7692 223C13.7692 107.624 107.639 13.7841 223 13.7841C338.361 13.7841 432.231 107.639 432.231 223.015C432.231 338.391 338.376 432.246 223 432.231Z" fill="#DCA369"/>
<path d="M223 422.817C333.347 422.817 422.802 333.363 422.802 223.015C422.802 112.667 333.347 23.2129 223 23.2129C112.652 23.2129 23.1978 112.667 23.1978 223.015C23.1978 333.363 112.652 422.817 223 422.817Z" fill="white"/>
<path d="M223 373.143C305.913 373.143 373.128 305.929 373.128 223.015C373.128 140.101 305.913 72.8866 223 72.8866C140.086 72.8866 72.8713 140.101 72.8713 223.015C72.8713 305.929 140.086 373.143 223 373.143Z" fill="#00285E"/>
<path d="M223 363.715C300.706 363.715 363.7 300.721 363.7 223.015C363.7 145.309 300.706 82.3154 223 82.3154C145.294 82.3154 82.3005 145.309 82.3005 223.015C82.3005 300.721 145.294 363.715 223 363.715Z" fill="white"/>
<path d="M81.4773 98.105L86.087 93.5851L99.2574 96.7879L96.309 83.5576L100.919 79.0377L119.971 98.4642L115.721 102.625L103.283 89.9333L105.947 103.598L105.843 103.702L92.3729 100.799L104.735 113.401L100.545 117.516L81.4923 98.09L81.4773 98.105Z" fill="#00285E"/>
<path d="M119.282 84.3807L110.826 71.33L115.855 68.0673L124.221 80.9983C126.631 84.7249 129.744 85.4433 132.812 83.4528C135.88 81.4622 136.539 78.3941 134.189 74.7723L125.718 61.6916L130.747 58.4289L139.098 71.315C143.573 78.2295 141.897 84.1412 135.761 88.1223C129.624 92.1034 123.653 91.1006 119.282 84.3807Z" fill="#00285E"/>
<path d="M141.822 52.5471L147.839 50.1974L158.689 58.3092L161.159 44.9891L167.175 42.6393L177.083 67.9925L171.545 70.1626L165.08 53.6097L162.176 67.2292L162.027 67.2891L150.772 59.3269L157.193 75.7751L151.73 77.9153L141.822 52.5471Z" fill="#00285E"/>
<path d="M179.597 39.4514L192.049 37.2663C195.117 36.7275 197.677 37.1466 199.473 38.4037C200.909 39.4065 201.792 40.7984 202.107 42.6392V42.7141C202.645 45.7373 201.343 47.7129 199.607 49.1197C202.915 49.7633 205.145 51.23 205.788 54.8219V54.8968C206.656 59.7908 203.109 62.9487 197.063 64.0113L184.312 66.2563L179.597 39.4514ZM192.678 48.3265C195.282 47.8625 196.779 46.7401 196.434 44.7495V44.6747C196.105 42.9086 194.564 42.1603 192.064 42.5943L186.242 43.6121L187.245 49.2844L192.678 48.3265ZM196.15 58.8479C198.754 58.3839 200.161 57.2016 199.817 55.2111V55.1362C199.488 53.3403 197.946 52.4572 194.923 52.996L188.113 54.1933L189.146 60.0901L196.15 58.8479Z" fill="#00285E"/>
<path d="M221.952 34.4976L227.475 34.5874L238.7 62.1855L232.444 62.0807L230.049 55.9295L218.54 55.7499L215.951 61.8113L209.844 61.7066L221.952 34.4976ZM227.999 50.6164L224.527 41.7264L220.77 50.4967L227.999 50.6164Z" fill="#00285E"/>
<path d="M247.724 36.3235L253.651 37.1915L249.685 64.1311L243.758 63.2631L247.724 36.3235Z" fill="#00285E"/>
<path d="M273.871 55.4955L273.901 55.4206C276.67 48.1918 284.377 44.3604 292.19 47.3388C296.979 49.1796 299.239 51.8736 300.721 55.0914L295.587 57.8302C294.3 55.3009 292.729 53.4451 290.184 52.4722C285.904 50.8259 281.444 53.2056 279.783 57.5758L279.753 57.6506C278.091 62.0059 279.708 66.7951 284.078 68.4564C286.981 69.5639 289.211 69.085 291.905 68.0373L294.09 72.9912C290.409 74.7872 286.832 75.4158 281.923 73.545C274.44 70.6864 271.087 62.7841 273.886 55.4805L273.871 55.4955Z" fill="#00285E"/>
<path d="M310.314 56.1391L315.582 58.9977L302.561 82.9141L297.308 80.0555L310.329 56.1391H310.314Z" fill="#00285E"/>
<path d="M326.657 72.4375L319.923 67.6184L323.125 63.1284L341.489 76.239L338.286 80.729L331.551 75.9098L318.935 93.5702L314.056 90.083L326.672 72.4226L326.657 72.4375Z" fill="#00285E"/>
<path d="M343.48 100.515L347.91 81.5071L352.819 86.5059L349.571 98.7934L361.993 95.86L366.753 100.709L347.745 104.72L340.007 112.323L335.817 108.058L343.48 100.544V100.515Z" fill="#00285E"/>
<path d="M103.508 336.341L114.673 347.147L111.829 350.08L103.882 342.387L100.859 345.515L107.863 352.295L105.02 355.228L98.0152 348.449L92.5225 354.121L89.2898 350.993L103.508 336.341Z" fill="#00285E"/>
<path d="M111.051 357.698L111.081 357.653C114.508 352.969 121.019 351.846 126.107 355.573C131.196 359.299 132.064 365.765 128.637 370.449L128.607 370.494C125.179 375.179 118.669 376.301 113.58 372.575C108.492 368.848 107.624 362.382 111.051 357.698ZM124.775 367.755L124.805 367.71C126.871 364.882 126.526 361.02 123.608 358.88C120.69 356.74 116.978 357.563 114.912 360.392L114.883 360.437C112.817 363.265 113.161 367.127 116.08 369.267C118.998 371.407 122.71 370.584 124.775 367.755Z" fill="#00285E"/>
<path d="M133.381 373.517L133.411 373.473C136.075 368.309 142.316 366.184 147.913 369.072C153.511 371.961 155.381 378.202 152.717 383.365L152.687 383.41C150.023 388.574 143.782 390.699 138.185 387.81C132.587 384.922 130.717 378.681 133.381 373.517ZM148.497 381.315L148.527 381.27C150.128 378.157 149.185 374.386 145.967 372.739C142.75 371.078 139.218 372.47 137.616 375.583L137.586 375.628C135.985 378.741 136.928 382.512 140.145 384.159C143.363 385.82 146.895 384.428 148.497 381.315Z" fill="#00285E"/>
<path d="M164.765 381.39L158.914 379.324L160.291 375.418L176.245 381.046L174.868 384.952L169.016 382.886L163.598 398.227L159.363 396.73L164.765 381.39Z" fill="#00285E"/>
<path d="M180.51 382.228L189.774 384.204C192.049 384.697 193.726 385.7 194.609 387.092C195.327 388.2 195.551 389.412 195.252 390.774V390.834C194.758 393.094 193.292 394.081 191.69 394.575C193.815 395.952 194.953 397.599 194.369 400.278V400.337C193.576 403.989 190.223 405.172 185.719 404.214L176.215 402.178L180.48 382.213L180.51 382.228ZM186.557 400.367C188.502 400.786 189.819 400.352 190.134 398.871V398.811C190.433 397.464 189.61 396.431 187.365 395.952L182.291 394.86L181.348 399.245L186.572 400.367H186.557ZM187.11 392.076C189.056 392.495 190.418 392.121 190.732 390.639V390.579C191.032 389.262 190.164 388.304 188.308 387.915L183.967 386.987L183.069 391.208L187.11 392.076Z" fill="#00285E"/>
<path d="M208.991 386.823L213.122 387.122L220.381 408.27L215.696 407.925L214.17 403.226L205.564 402.612L203.379 407.042L198.814 406.713L209.021 386.823H208.991ZM212.838 399.155L210.608 392.36L207.42 398.766L212.838 399.155Z" fill="#00285E"/>
<path d="M226.038 387.661L230.528 387.406L231.456 403.705L241.618 403.121L241.857 407.192L227.22 408.03L226.053 387.646L226.038 387.661Z" fill="#00285E"/>
<path d="M245.135 386.209L249.565 385.431L252.379 401.52L262.406 399.769L263.11 403.795L248.667 406.324L245.15 386.224L245.135 386.209Z" fill="#00285E"/>
<path d="M277.163 389.532V389.472C275.053 384.054 277.433 378.052 283.285 375.792C286.877 374.416 289.496 374.775 291.935 375.837L290.454 379.938C288.463 379.175 286.652 378.935 284.751 379.669C281.534 380.911 280.246 384.458 281.504 387.736V387.796C282.776 391.058 286.083 392.914 289.361 391.657C291.546 390.819 292.534 389.427 293.507 387.496L297.218 389.158C296.066 392.001 294.39 394.156 290.708 395.563C285.096 397.718 279.274 394.994 277.163 389.532Z" fill="#00285E"/>
<path d="M295.213 371.048L299.164 368.908L306.917 383.276L315.867 378.441L317.813 382.033L304.897 389.008L295.198 371.048H295.213Z" fill="#00285E"/>
<path d="M318.276 371.527L311.481 362.038L315.133 359.419L321.853 368.818C323.784 371.527 326.149 371.946 328.379 370.36C330.609 368.758 330.998 366.438 329.112 363.804L322.302 354.301L325.954 351.681L332.659 361.05C336.266 366.079 335.203 370.569 330.743 373.757C326.283 376.945 321.778 376.406 318.276 371.527Z" fill="#00285E"/>
<path d="M330.594 347.76L337.463 341.22C339.155 339.604 340.921 338.81 342.582 338.84C343.899 338.87 345.021 339.379 345.994 340.382L346.039 340.427C347.626 342.088 347.626 343.869 347.132 345.47C349.466 344.498 351.472 344.483 353.358 346.473L353.403 346.518C355.977 349.227 355.064 352.669 351.726 355.842L344.692 362.547L330.594 347.76ZM342.447 347.865C343.884 346.503 344.348 345.171 343.3 344.064L343.255 344.019C342.327 343.046 341.04 343.225 339.678 344.527L336.476 347.581L339.454 350.709L342.447 347.85V347.865ZM348.987 352.998C350.424 351.637 350.813 350.305 349.766 349.197L349.721 349.152C348.778 348.164 347.446 348.254 345.785 349.841L342.028 353.418L345.126 356.665L348.987 352.998Z" fill="#00285E"/>
<path d="M324.069 306.692H121.932C126.197 311.826 130.837 316.63 135.821 321.06H310.195C315.179 316.63 319.818 311.826 324.084 306.692H324.069Z" fill="#00285E"/>
<path d="M290.723 335.428H155.292C175.078 347.386 198.246 354.286 223.015 354.286C247.785 354.286 270.953 347.401 290.738 335.428H290.723Z" fill="#00285E"/>
<path d="M103.792 277.942C106.082 282.911 108.686 287.7 111.56 292.31H334.44C337.314 287.7 339.918 282.896 342.208 277.942H103.792Z" fill="#00285E"/>
<path d="M344.887 196.674H101.128V207.091H344.887V196.674Z" fill="#00285E"/>
<path d="M314.236 252.559V252.529H322.422V248.009H344.887V209.65H101.128V248.009H123.593V252.529H131.78V252.559C131.78 256.39 134.548 259.578 138.2 260.236H97.1174C97.4467 261.359 97.7909 262.466 98.1501 263.559H347.85C348.209 262.451 348.554 261.344 348.883 260.236H307.815C311.467 259.578 314.236 256.405 314.236 252.559ZM140.984 260.236C144.636 259.578 147.405 256.405 147.405 252.559V252.529H165.379V252.559C165.379 256.39 168.148 259.578 171.8 260.236H140.984ZM174.584 260.236C178.236 259.578 181.004 256.405 181.004 252.559V252.529H189.191V248.009H256.824V252.529H265.011V252.559C265.011 256.39 267.78 259.578 271.432 260.236H174.584ZM274.2 260.236C277.852 259.578 280.621 256.405 280.621 252.559V252.529H298.596V252.559C298.596 256.39 301.364 259.578 305.016 260.236H274.2Z" fill="#00285E"/>
<path d="M97.5364 196.674H94.3934C92.6723 205.07 91.7743 213.751 91.7444 222.641V223.404C91.7743 231.815 92.5975 240.032 94.139 248.009H97.5513L97.5364 196.674Z" fill="#00285E"/>
<path d="M351.622 196.674H348.479V248.009H351.891C353.463 239.912 354.286 231.561 354.286 223.03C354.286 214.005 353.373 205.205 351.622 196.674Z" fill="#00285E"/>
<path d="M196.509 215.861H205.579C207.031 215.861 208.198 217.028 208.198 218.48V227.55C208.198 229.001 207.031 230.169 205.579 230.169H196.509C195.058 230.169 193.89 229.001 193.89 227.55V218.48C193.89 217.028 195.058 215.861 196.509 215.861Z" fill="#DCA369"/>
<path d="M174.598 215.861H183.668C185.12 215.861 186.287 217.028 186.287 218.48V227.55C186.287 229.001 185.12 230.169 183.668 230.169H174.598C173.147 230.169 171.979 229.001 171.979 227.55V218.48C171.979 217.028 173.147 215.861 174.598 215.861Z" fill="#DCA369"/>
<path d="M130.777 215.861H139.846C141.298 215.861 142.465 217.028 142.465 218.48V227.55C142.465 229.001 141.298 230.169 139.846 230.169H130.777C129.325 230.169 128.157 229.001 128.157 227.55V218.48C128.157 217.028 129.325 215.861 130.777 215.861Z" fill="#DCA369"/>
<path d="M108.866 215.861H117.935C119.387 215.861 120.554 217.028 120.554 218.48V227.55C120.554 229.001 119.387 230.169 117.935 230.169H108.866C107.414 230.169 106.247 229.001 106.247 227.55V218.48C106.247 217.028 107.414 215.861 108.866 215.861Z" fill="#DCA369"/>
<path d="M327.975 215.861H337.044C338.496 215.861 339.663 217.028 339.663 218.48V227.55C339.663 229.001 338.496 230.169 337.044 230.169H327.975C326.523 230.169 325.355 229.001 325.355 227.55V218.48C325.355 217.028 326.523 215.861 327.975 215.861Z" fill="#DCA369"/>
<path d="M306.064 215.861H315.134C316.585 215.861 317.753 217.028 317.753 218.48V227.55C317.753 229.001 316.585 230.169 315.134 230.169H306.064C304.612 230.169 303.445 229.001 303.445 227.55V218.48C303.445 217.028 304.612 215.861 306.064 215.861Z" fill="#DCA369"/>
<path d="M284.153 215.861H293.223C294.674 215.861 295.842 217.028 295.842 218.48V227.55C295.842 229.001 294.674 230.169 293.223 230.169H284.153C282.701 230.169 281.534 229.001 281.534 227.55V218.48C281.534 217.028 282.701 215.861 284.153 215.861Z" fill="#DCA369"/>
<path d="M218.42 215.861H227.49C228.942 215.861 230.109 217.028 230.109 218.48V227.55C230.109 229.001 228.942 230.169 227.49 230.169H218.42C216.969 230.169 215.801 229.001 215.801 227.55V218.48C215.801 217.028 216.969 215.861 218.42 215.861Z" fill="#DCA369"/>
<path d="M152.687 215.861H161.757C163.209 215.861 164.376 217.028 164.376 218.48V227.55C164.376 229.001 163.209 230.169 161.757 230.169H152.687C151.236 230.169 150.068 229.001 150.068 227.55V218.48C150.068 217.028 151.236 215.861 152.687 215.861Z" fill="#DCA369"/>
<path d="M262.242 215.861H271.312C272.764 215.861 273.931 217.028 273.931 218.48V227.55C273.931 229.001 272.764 230.169 271.312 230.169H262.242C260.79 230.169 259.623 229.001 259.623 227.55V218.48C259.623 217.028 260.79 215.861 262.242 215.861Z" fill="#DCA369"/>
<path d="M240.331 215.861H249.401C250.852 215.861 252.02 217.028 252.02 218.48V227.55C252.02 229.001 250.852 230.169 249.401 230.169H240.331C238.879 230.169 237.712 229.001 237.712 227.55V218.48C237.712 217.028 238.879 215.861 240.331 215.861Z" fill="#DCA369"/>
<path d="M347.82 182.471C330.699 129.879 281.235 91.7592 223 91.7592C164.766 91.7592 115.302 129.879 98.1802 182.471H347.82Z" fill="#6CADDF"/>
<path d="M344.213 182.471L234.42 108.252L223 115.975L321.375 182.471H344.213Z" fill="#B2CFED"/>
<path d="M124.626 182.471L223 115.975L211.581 108.252L101.787 182.471H124.626Z" fill="#B2CFED"/>
<path d="M321.375 182.471L223 115.975L124.626 182.471H321.375Z" fill="white"/>
<path d="M347.85 182.471H251.945L237.607 122.725L236.365 105.394H232.788L231.546 122.725L223 167.519L214.454 122.725L213.212 105.394H209.635L208.393 122.725L194.055 182.471H98.1501C97.7909 183.578 97.4467 184.686 97.1174 185.793H348.898C348.569 184.671 348.224 183.563 347.85 182.471ZM234.674 132.004L241.394 182.471H228.897L234.674 132.004ZM211.341 132.004L217.118 182.471H204.621L211.341 132.004Z" fill="#092264"/>
</svg>
