<svg width="135" height="76" viewBox="0 0 135 76" fill="none" xmlns="http://www.w3.org/2000/svg">
<path d="M17.4602 1.27273L35.0384 56.5284H35.7131L53.3267 1.27273H70.3722L45.3011 74H25.4858L0.379262 1.27273H17.4602ZM118.579 22.1889C118.295 19.3243 117.076 17.099 114.921 15.5128C112.767 13.9266 109.843 13.1335 106.15 13.1335C103.64 13.1335 101.522 13.4886 99.7933 14.1989C98.0651 14.8854 96.7393 15.8442 95.8161 17.0753C94.9164 18.3063 94.4666 19.7031 94.4666 21.2656C94.4193 22.5677 94.6915 23.7041 95.2834 24.6747C95.8989 25.6454 96.7393 26.4858 97.8047 27.196C98.87 27.8826 100.101 28.4863 101.498 29.0071C102.895 29.5043 104.386 29.9304 105.972 30.2855L112.506 31.848C115.679 32.5582 118.591 33.5052 121.242 34.6889C123.894 35.8726 126.19 37.3286 128.131 39.0568C130.073 40.785 131.576 42.821 132.641 45.1648C133.73 47.5085 134.287 50.1955 134.31 53.2259C134.287 57.6766 133.15 61.5355 130.901 64.8026C128.676 68.0459 125.456 70.5672 121.242 72.3665C117.052 74.142 111.997 75.0298 106.079 75.0298C100.208 75.0298 95.094 74.1302 90.7379 72.331C86.4055 70.5317 83.0201 67.8684 80.5817 64.3409C78.1669 60.7898 76.9003 56.3982 76.782 51.1662H91.6612C91.8269 53.6046 92.5253 55.6406 93.7564 57.2741C95.0111 58.884 96.6802 60.1032 98.7635 60.9318C100.871 61.7367 103.25 62.1392 105.901 62.1392C108.505 62.1392 110.766 61.7604 112.684 61.0028C114.625 60.2453 116.129 59.1918 117.194 57.8423C118.259 56.4929 118.792 54.9422 118.792 53.1903C118.792 51.5568 118.307 50.1837 117.336 49.071C116.389 47.9583 114.992 47.0114 113.146 46.2301C111.323 45.4489 109.085 44.7386 106.434 44.0994L98.5149 42.1108C92.3833 40.6193 87.5419 38.2874 83.9908 35.1151C80.4396 31.9427 78.6759 27.6695 78.6996 22.2955C78.6759 17.892 79.8478 14.045 82.2152 10.7543C84.6063 7.46354 87.8852 4.89489 92.0518 3.04829C96.2185 1.2017 100.953 0.278406 106.256 0.278406C111.654 0.278406 116.365 1.2017 120.39 3.04829C124.438 4.89489 127.587 7.46354 129.836 10.7543C132.085 14.045 133.245 17.8565 133.316 22.1889H118.579Z" fill="white"/>
</svg>
